<svg xmlns="http://www.w3.org/2000/svg" xml:space="preserve" id="svg1" width="250" height="250.001" version="1.1" viewBox="0 0 66.146 66.146"><style id="style3">text{text-anchor:middle;fill:#000;fill-opacity:1;font-family:&quot;Bodoni Moda SC&quot;;stroke:none;text-align:center}</style><defs id="defs1"><path id="rect1" d="M163.534 352.986h180.813v58.625H163.534z"/></defs><g id="g6" style="display:inline" transform="translate(-124.992 -185.185)"><path id="rect2" d="M133.63 193.824c11.519-11.519 37.35-11.519 48.869 0 11.518 11.518 11.518 37.35 0 48.868-11.519 11.518-37.35 11.518-48.869 0-11.518-11.519-11.518-37.35 0-48.868z" style="font-variation-settings:&quot;opsz&quot;34,&quot;wght&quot;450;display:inline;fill:#ffe500;fill-opacity:1;stroke:#1b5e39;stroke-width:0;stroke-linecap:round;stroke-linejoin:round;stroke-miterlimit:0;stroke-dasharray:none"/><path id="text6" d="M166.16 200.626v-3.938l9.583-7.561q2.633-2.064 3.813-4.844 1.179-2.801 1.179-6.15 0-2.38-.758-4.381-.737-2.022-2.085-3.244-1.348-1.242-3.16-1.242-2.316 0-4.233 1.095-1.895 1.074-2.949 3.075-1.053 2-.8 4.739h-.063q0-.8.548-1.496.547-.716 1.41-1.137.864-.442 1.812-.442.885 0 1.685.442.821.421 1.327 1.18.526.758.526 1.748 0 1.095-.505 1.916-.485.8-1.327 1.264-.821.442-1.832.442-.99 0-1.812-.484-.8-.506-1.306-1.39-.505-.885-.568-2.043-.253-2.928.969-5.076 1.221-2.148 3.622-3.307 2.401-1.18 5.666-1.18 3.18 0 5.434 1.096 2.274 1.074 3.454 2.907 1.2 1.81 1.2 4.001 0 1.77-.716 3.202-.695 1.41-1.811 2.548-1.116 1.137-2.401 2.085-1.264.948-2.401 1.79l-10.594 8.551h18.703v-3.159h.084v8.993zm30.73-.042v-31.466h-4.76v-.084h10.804v31.55zm-5.477.042v-.084h16.154v.084z" aria-label="21" style="font-size:42.1231px;font-family:&quot;Bodoni Moda SC&quot;;-inkscape-font-specification:&quot;Bodoni Moda SC, @opsz=96.0,wght=652&quot;;font-variation-settings:&quot;opsz&quot;96,&quot;wght&quot;652;text-align:center;text-anchor:middle;fill:#1b5e39;stroke:#1b5e39;stroke-width:1.5656;stroke-linecap:round;stroke-linejoin:round;stroke-miterlimit:0" transform="scale(.84588 1.1822)"/></g></svg>