<?xml version="1.0" encoding="UTF-8" standalone="no"?>
<!-- Created with Inkscape (http://www.inkscape.org/) -->

<svg
   width="11.5274mm"
   height="9.8529596mm"
   viewBox="0 0 11.5274 9.8529598"
   version="1.1"
   id="svg1"
   inkscape:version="1.3.2 (091e20e, 2023-11-25, custom)"
   sodipodi:docname="logo.svg"
   xmlns:inkscape="http://www.inkscape.org/namespaces/inkscape"
   xmlns:sodipodi="http://sodipodi.sourceforge.net/DTD/sodipodi-0.dtd"
   xmlns="http://www.w3.org/2000/svg"
   xmlns:svg="http://www.w3.org/2000/svg">
  <style
     id="style3">
text { 
    text-anchor:middle;
    fill:#000;
    fill-opacity:1;
    font-family:'Bodoni Moda SC';
    stroke:none;
    text-align:center;
}
.lock-21 { 
    font-size:80px;
    font-weight:500;
}
.projet { 
    font-family:'Bodoni Moda';
    font-size:9px;
    font-variant:small-caps;
    font-weight:500;
    letter-spacing:20px;
}
</style>
  <sodipodi:namedview
     id="namedview1"
     pagecolor="#ffffff"
     bordercolor="#000000"
     borderopacity="0.25"
     inkscape:showpageshadow="2"
     inkscape:pageopacity="0.0"
     inkscape:pagecheckerboard="0"
     inkscape:deskcolor="#d1d1d1"
     inkscape:document-units="mm"
     inkscape:zoom="2"
     inkscape:cx="-153.75"
     inkscape:cy="19.75"
     inkscape:window-width="3840"
     inkscape:window-height="2054"
     inkscape:window-x="-11"
     inkscape:window-y="-11"
     inkscape:window-maximized="1"
     inkscape:current-layer="g6" />
  <defs
     id="defs1">
    <rect
       x="163.53365"
       y="352.98584"
       width="180.81268"
       height="58.625267"
       id="rect1" />
  </defs>
  <g
     inkscape:label="Layer 1 copy"
     inkscape:groupmode="layer"
     id="g4"
     transform="translate(-238.15819,-276.83173)"
     style="display:none">
    <text
       xml:space="preserve"
       id="text4"
       inkscape:label="Lock 21"
       class="lock-21 text"
       x="309.7139"
       y="174.1731"
       style="font-style:normal;font-variant:normal;font-weight:bold;font-stretch:normal;font-size:10.0674px;font-family:'Bodoni MT';-inkscape-font-specification:'Bodoni MT, Bold';font-variant-ligatures:normal;font-variant-caps:normal;font-variant-numeric:normal;font-variant-east-asian:normal;text-align:center;text-anchor:middle;fill:#000000;fill-opacity:1;stroke:none;stroke-width:0.125842"
       transform="scale(0.77858171,1.2843867)"><tspan
         sodipodi:role="line"
         id="tspan4"
         x="309.7139"
         y="174.1731"
         style="font-style:normal;font-variant:normal;font-weight:bold;font-stretch:normal;font-size:10.0674px;font-family:'Bodoni MT';-inkscape-font-specification:'Bodoni MT, Bold';font-variant-ligatures:normal;font-variant-caps:normal;font-variant-numeric:normal;font-variant-east-asian:normal;stroke-width:0.125842">L21</tspan></text>
  </g>
  <g
     inkscape:groupmode="layer"
     id="layer2"
     inkscape:label="Layer 2"
     transform="translate(-122.16655,-182.35964)"
     style="display:none">
    <text
       xml:space="preserve"
       style="font-style:normal;font-variant:normal;font-weight:normal;font-stretch:normal;font-size:10.9131px;font-family:'Bodoni Moda SC';-inkscape-font-specification:'Bodoni Moda SC, @opsz=6.0';font-variant-ligatures:normal;font-variant-caps:normal;font-variant-numeric:normal;font-variant-east-asian:normal;font-variation-settings:'opsz' 6;text-align:center;text-anchor:middle;fill:#df7006;fill-opacity:0.101961;stroke:#b35700;stroke-width:0.227357;stroke-linecap:round;stroke-linejoin:round;stroke-miterlimit:0;stroke-opacity:1"
       x="126.10046"
       y="191.40578"
       id="text2"><tspan
         sodipodi:role="line"
         id="tspan2"
         style="font-style:normal;font-variant:normal;font-weight:normal;font-stretch:normal;font-size:10.9131px;font-family:'Bodoni Moda SC';-inkscape-font-specification:'Bodoni Moda SC, @opsz=6.0';font-variant-ligatures:normal;font-variant-caps:normal;font-variant-numeric:normal;font-variant-east-asian:normal;font-variation-settings:'opsz' 6;stroke:#b35700;stroke-width:0.227357;stroke-opacity:1"
         x="126.10046"
         y="191.40578">L</tspan></text>
    <text
       xml:space="preserve"
       style="font-style:normal;font-variant:normal;font-weight:normal;font-stretch:normal;font-size:6.06286px;font-family:'Bodoni Moda SC';-inkscape-font-specification:'Bodoni Moda SC, @opsz=96.0';font-variant-ligatures:normal;font-variant-caps:normal;font-variant-numeric:normal;font-variant-east-asian:normal;font-variation-settings:'opsz' 96;text-align:center;text-anchor:middle;fill:#f17600;fill-opacity:1;stroke:#f17600;stroke-width:0.227357;stroke-linecap:round;stroke-linejoin:round;stroke-miterlimit:0;stroke-opacity:1"
       x="130.08652"
       y="187.77423"
       id="text3"><tspan
         sodipodi:role="line"
         id="tspan3"
         style="font-style:normal;font-variant:normal;font-weight:normal;font-stretch:normal;font-size:6.06286px;font-family:'Bodoni Moda SC';-inkscape-font-specification:'Bodoni Moda SC, @opsz=96.0';font-variant-ligatures:normal;font-variant-caps:normal;font-variant-numeric:normal;font-variant-east-asian:normal;font-variation-settings:'opsz' 96;fill:#f17600;fill-opacity:1;stroke:#f17600;stroke-width:0.227357;stroke-opacity:1"
         x="130.08652"
         y="187.77423">21</tspan></text>
  </g>
  <g
     inkscape:groupmode="layer"
     id="g6"
     inkscape:label="Layer 2 copy"
     transform="translate(-122.16655,-182.35964)"
     style="display:inline">
    <path
       id="text5"
       style="font-size:5.66821px;font-family:Besley;-inkscape-font-specification:'Besley, Normal';text-align:center;text-anchor:middle;display:inline;fill:#cddc49;fill-opacity:0.70980394;stroke-width:0.109324;stroke-linecap:round;stroke-linejoin:round;stroke-miterlimit:0"
       d="m 123.26673,186.69653 c -0.0401,-1e-5 -0.0676,0.004 -0.0824,0.011 -0.0147,0.006 -0.0225,0.0247 -0.0225,0.0522 v 0.10206 c 0,0.0305 0.006,0.0505 0.0192,0.0608 0.0126,0.008 0.0393,0.0134 0.0796,0.0134 l 0.46671,-4.8e-4 c 0.055,0 0.0913,0.006 0.10829,0.0153 0.0169,0.008 0.0254,0.0307 0.0254,0.067 v 2.6398 c 0,0.0406 -0.009,0.0651 -0.0288,0.0738 -0.019,0.008 -0.0594,0.013 -0.12074,0.013 h -0.46911 c -0.0359,0 -0.0582,0.006 -0.0666,0.0153 -0.009,0.0101 -0.0129,0.0285 -0.0129,0.0546 v 0.28785 c 0,0.0363 0.0105,0.0584 0.0321,0.067 0.0211,0.006 0.0558,0.011 0.10446,0.011 h 9.27471 c 0.0592,0 0.0944,-0.006 0.10494,-0.0197 0.0126,-0.0131 0.0186,-0.0399 0.0186,-0.0805 v -1.14506 c 0,-0.029 -0.009,-0.0465 -0.0283,-0.0522 -0.0169,-0.006 -0.0467,-0.008 -0.0891,-0.008 h -0.13321 c -0.0297,0 -0.0486,0.006 -0.057,0.0153 -0.006,0.0101 -0.0101,0.0251 -0.0101,0.0455 -0.002,0.18286 -0.0353,0.33475 -0.0987,0.45521 -0.0613,0.119 -0.16906,0.20835 -0.32344,0.26785 -0.15439,0.058 -0.37305,0.0867 -0.65646,0.0867 h -6.70543 c -0.0465,0 -0.0805,-0.004 -0.10158,-0.011 -0.0211,-0.006 -0.0316,-0.0265 -0.0316,-0.0584 v -2.65466 c 0,-0.0362 0.009,-0.0593 0.0288,-0.0695 0.0211,-0.0101 0.0545,-0.0153 0.1011,-0.0153 h 0.45713 c 0.0423,0 0.0706,-0.005 0.0853,-0.013 0.0169,-0.008 0.0254,-0.0293 0.0254,-0.0613 v -0.0915 c 0,-0.0348 -0.009,-0.0555 -0.0283,-0.0628 -0.0169,-0.006 -0.0509,-0.011 -0.10158,-0.011 z m 0.034,4.44752 c -0.0491,0 -0.0841,0.005 -0.10541,0.011 -0.0218,0.008 -0.0326,0.0312 -0.0326,0.0676 v 0.28783 c 0,0.0262 0.004,0.0445 0.0129,0.0546 0.008,0.009 0.0313,0.0148 0.0676,0.0148 3.12507,-8.2e-4 6.24978,-3.4e-4 9.37486,0 0.0363,0 0.0592,-0.006 0.0676,-0.0148 0.009,-0.0101 0.013,-0.0285 0.013,-0.0546 v -0.28783 c 0,-0.0363 -0.0108,-0.0593 -0.0325,-0.0676 -0.0213,-0.006 -0.0563,-0.011 -0.10542,-0.011 z"
       sodipodi:nodetypes="scssccccsscsscsscsscsscssccccsscsscsscsscssscssccccsscss" />
    <text
       xml:space="preserve"
       style="font-style:normal;font-variant:normal;font-weight:normal;font-stretch:normal;font-size:6.3892px;font-family:'Bodoni Moda SC';-inkscape-font-specification:'Bodoni Moda SC, @opsz=34.0,wght=450';font-variant-ligatures:normal;font-variant-caps:normal;font-variant-numeric:normal;font-variant-east-asian:normal;font-variation-settings:'opsz' 34, 'wght' 450;text-align:center;text-anchor:middle;fill:#1b5e39;fill-opacity:1;stroke:#1b5e39;stroke-width:0.220726;stroke-linecap:round;stroke-linejoin:round;stroke-miterlimit:0;stroke-opacity:1"
       x="140.25162"
       y="173.14545"
       id="text6"
       transform="scale(0.91768217,1.0897019)"><tspan
         sodipodi:role="line"
         id="tspan6"
         style="font-style:normal;font-variant:normal;font-weight:normal;font-stretch:normal;font-size:6.3892px;font-family:'Bodoni Moda SC';-inkscape-font-specification:'Bodoni Moda SC, @opsz=34.0,wght=450';font-variant-ligatures:normal;font-variant-caps:normal;font-variant-numeric:normal;font-variant-east-asian:normal;font-variation-settings:'opsz' 34, 'wght' 450;fill:#1b5e39;fill-opacity:1;stroke:#1b5e39;stroke-width:0.220726;stroke-opacity:1"
         x="140.25162"
         y="173.14545">21</tspan></text>
  </g>
</svg>
